<?xml version="1.0" encoding="UTF-8"?>
<svg width="207px" height="228px" viewBox="0 0 207 228" version="1.1" xmlns="http://www.w3.org/2000/svg" xmlns:xlink="http://www.w3.org/1999/xlink">
    <!-- Generator: Sketch 53.2 (72643) - https://sketchapp.com -->
    <title>Group 52</title>
    <desc>Created with Sketch.</desc>
    <g id="Page-1" stroke="none" stroke-width="1" fill="none" fill-rule="evenodd">
        <g id="Group-52">
            <path d="M7,27.5822969 L7,220.082297 C7,223.94829 10.1340068,227.082297 14,227.082297 L200,227.082297 C203.865993,227.082297 207,223.94829 207,220.082297 L207,15.5822969 L56.9448177,15.5822969 L50.0672843,27.5822969 L7,27.5822969 Z" id="Path-6" fill="#201A6D"></path>
            <polygon id="Path-18" fill="#484AD5" fill-rule="nonzero" points="52.7619222 6.66459373 44.1619222 19.0822969 10 19.0822969 10 18.0822969 43.6380778 18.0822969 52.2380778 5.66459373 206.328601 5.66459373 206.328601 6.66459373"></polygon>
            <polygon id="Path-19" fill="#484AD5" fill-rule="nonzero" points="161 10.5822969 161 9.58229686 205.839543 9.58229686 205.839543 10.5822969"></polygon>
            <polygon id="Path-19-Copy-2" fill="#484AD5" fill-rule="nonzero" points="139 1.58229686 139 0.582296863 205.839543 0.582296863 205.839543 1.58229686"></polygon>
            <polygon id="Path-19-Copy" fill="#484AD5" fill-rule="nonzero" points="0.371406959 16.5822969 0.371406959 15.5822969 40.8395432 15.5822969 40.8395432 16.5822969"></polygon>
        </g>
    </g>
</svg>