<?xml version="1.0" encoding="UTF-8"?>
<svg width="116px" height="34px" viewBox="0 0 116 34" version="1.1" xmlns="http://www.w3.org/2000/svg" xmlns:xlink="http://www.w3.org/1999/xlink">
    <!-- Generator: Sketch 53.2 (72643) - https://sketchapp.com -->
    <title>0tc-9</title>
    <desc>Created with Sketch.</desc>
    <defs>
        <linearGradient x1="50%" y1="0%" x2="50%" y2="96.7034417%" id="linearGradient-1">
            <stop stop-color="#27A6FF" offset="0%"></stop>
            <stop stop-color="#0092FA" offset="100%"></stop>
        </linearGradient>
    </defs>
    <g id="Page-1" stroke="none" stroke-width="1" fill="none" fill-rule="evenodd">
        <g id="3" transform="translate(-381.000000, -275.000000)">
            <g id="Group-49" transform="translate(381.000000, 275.000000)">
                <path d="M4,0.686451613 C2.16997776,0.686451613 0.686451613,2.16997776 0.686451613,4 L0.686451613,30 C0.686451613,31.8300222 2.16997776,33.3135484 4,33.3135484 L100.640268,33.3135484 C101.306707,33.3135484 101.940776,33.0261605 102.380065,32.5249962 L114.6527,18.5237218 C115.417751,17.6509109 115.417697,16.3463295 114.652572,15.473583 L102.380089,1.47485745 C101.940803,0.973781199 101.306791,0.686451613 100.640421,0.686451613 L4,0.686451613 Z M4,-2.75161157e-15 L100.640421,7.54951657e-15 C101.50451,1.12281129e-14 102.326638,0.372582983 102.896265,1.02233328 L115.168748,15.0210588 C116.160892,16.1527575 116.160963,17.8444205 115.168915,18.9762025 L102.896279,32.977477 C102.326649,33.6273414 101.504446,34 100.640268,34 L4,34 C1.790861,34 3.12082951e-15,32.209139 8.8817842e-16,30 L-8.8817842e-16,4 C-1.15871992e-15,1.790861 1.790861,-3.14690143e-15 4,-2.75161157e-15 Z" id="Rectangle" fill="#318EFB" fill-rule="nonzero"></path>
                <path d="M5.75757576,2 L99.739395,2 C100.518809,2 101.26342,2.32278935 101.796236,2.89164221 L113.180486,15.045864 C114.194044,16.1279741 114.195816,17.8103658 113.184538,18.8946078 L101.796762,31.1040224 C101.263737,31.6755049 100.517346,32 99.7358687,32 L5.75757576,32 C3.68232397,32 2,30.317676 2,28.2424242 L2,5.75757576 C2,3.68232397 3.68232397,2 5.75757576,2 Z" id="Rectangle" fill="url(#linearGradient-1)"></path>
            </g>
        </g>
    </g>
</svg>