<?xml version="1.0" encoding="UTF-8"?>
<svg width="92px" height="32px" viewBox="0 0 92 32" version="1.1" xmlns="http://www.w3.org/2000/svg" xmlns:xlink="http://www.w3.org/1999/xlink">
    <!-- Generator: Sketch 53.2 (72643) - https://sketchapp.com -->
    <title>0tc-8</title>
    <desc>Created with Sketch.</desc>
    <g id="Page-1" stroke="none" stroke-width="1" fill="none" fill-rule="evenodd">
        <g id="3" transform="translate(-497.000000, -319.000000)">
            <g id="Group-5" transform="translate(497.000000, 319.000000)">
                <path d="M4,0.686451613 C2.16997776,0.686451613 0.686451613,2.16997776 0.686451613,4 L0.686451613,28 C0.686451613,29.8300222 2.16997776,31.3135484 4,31.3135484 L88,31.3135484 C89.8300222,31.3135484 91.3135484,29.8300222 91.3135484,28 L91.3135484,4 C91.3135484,2.16997776 89.8300222,0.686451613 88,0.686451613 L4,0.686451613 Z M4,0 L88,0 C90.209139,0 92,1.790861 92,4 L92,28 C92,30.209139 90.209139,32 88,32 L4,32 C1.790861,32 0,30.209139 0,28 L0,4 C0,1.790861 1.790861,0 4,0 Z" id="Rectangle-Copy-20" fill="#318EFB" fill-rule="nonzero"></path>
                <rect id="Rectangle-Copy-20" fill="#1074DC" opacity="0.800000012" x="2" y="2" width="88" height="28" rx="3"></rect>
            </g>
        </g>
    </g>
</svg>