<svg height="112" viewBox="0 0 112 112" width="112" xmlns="http://www.w3.org/2000/svg"><g fill="none"><path d="m56 111.812c-30.8241165 0-55.812-24.9878835-55.812-55.812s24.9878835-55.812 55.812-55.812 55.812 24.9878835 55.812 55.812-24.9878835 55.812-55.812 55.812zm0-1.624c29.927206 0 54.188-24.260794 54.188-54.188s-24.260794-54.188-54.188-54.188-54.188 24.260794-54.188 54.188 24.260794 54.188 54.188 54.188z" fill="#706dda" opacity=".2"/><path d="m56 96.5c-22.3675324 0-40.5-18.1324676-40.5-40.5s18.1324676-40.5 40.5-40.5 40.5 18.1324676 40.5 40.5-18.1324676 40.5-40.5 40.5zm0-1c21.8152476 0 39.5-17.6847524 39.5-39.5s-17.6847524-39.5-39.5-39.5-39.5 17.6847524-39.5 39.5 17.6847524 39.5 39.5 39.5z" fill="#ea9859" opacity=".2"/><path d="m56 104c-26.509668 0-48-21.490332-48-48s21.490332-48 48-48 48 21.490332 48 48-21.490332 48-48 48zm0-2c25.4050985 0 46-20.5949015 46-46s-20.5949015-46-46-46-46 20.5949015-46 46 20.5949015 46 46 46z" fill="#706dda"/></g></svg>