<svg height="112" viewBox="0 0 112 112" width="112" xmlns="http://www.w3.org/2000/svg"><path d="m51 226.5v-1c.33079 0 .6612052-.00318.9912167-.009532l.0192444.999815c-.3364254.006475-.6732557.009717-1.0104611.009717zm2.0188097-.03885-.0385248-.999258c.3297581-.012713.6590637-.028602.9878865-.047657l.0578533.998325c-.335262.019429-.6710107.035628-1.007215.04859zm2.0171381-.11699-.0772971-.997008c.3294635-.025543.6583897-.054275.9867471-.086185l.0967257.995311c-.3348271.032539-.6702298.061836-1.0061757.087882zm2.0108976-.195448-.1161769-.993229c.3282207-.038391.6558174-.07997.9827575-.124724l.1356235.99076c-.333413.045641-.6674923.088042-1.0022041.127193zm2.0076091-.27495-.1551712-.987888c.3260001-.051206.6512885-.105582.9758312-.163115l.1745535.984648c-.3309914.058676-.6627409.114132-.9952135.166355zm1.9970945-.354252-.1940933-.980983c.3242495-.064155.6476922-.131475.9702929-.201947l.2134163.976961c-.3290268.071876-.6589108.140537-.9896159.205969zm1.9843879-.433691-.2328574-.972511c.321448-.076967.641994-.157078.9616018-.240319l.2520378.967718c-.3259836.084901-.6529234.16661-.9807822.245112zm1.9359688-.503786-.2707261-.962656c.3178578-.089391.63472-.181892.9505495-.277487l.2896996.957118c-.3221338.097503-.6453208.191851-.969523.283025zm1.9385606-.586877-.3086648-.951171c.3143456-.102009.6275952-.2071.9397106-.315255l.3274213.944879c-.3183449.110314-.6378469.217502-.9584671.321547zm1.9147532-.663601-.3461304-.938186c.3097541-.11428.6183145-.231596.9256424-.351929l.3645941.931167c-.3134574.122733-.6281726.242389-.9441061.358948zm1.8887621-.739713-.3830593-.923724c.3052254-.126574.6091539-.256144.9117462-.388688l.4012252.91598c-.3086203.135184-.6186044.267336-.9299121.396432zm1.8605383-.815172-.4193924-.907805c.2995568-.138391.5977186-.279718.894446-.423958l.4371873.89937c-.3026295.14711-.6067232.291249-.9122409.432393zm1.8300328-.889932-.4550758-.890453c.2937825-.150141.5860683-.30316.8768178-.459033l.4724903.881336c-.2965228.158968-.5946138.315027-.8942323.46815zm1.792957-.961567-.4899768-.871736c.2878114-.16177.5740219-.326361.8585917-.493745l.5069986.861947c-.2902102.170702-.5820949.338556-.8756135.503534zm1.7248832-1.014142-.523494-.852029c.2809472-.172616.5601978-.34798.8377123-.526063l.5400728.841618c-.2830054.181607-.5677826.360441-.8542911.536474zm1.6771336-1.075648-.5560282-.831164c.2746975-.183766.5475916-.370222.8186425-.559337l.5722032.820111c-.2764054.192852-.5546914.382992-.8348175.57039zm1.6593457-1.157773-.5881669-.808739c.2668918-.194101.5318862-.390808.7949442-.590091l.6038507.797097c-.2682471.203214-.5384697.403802-.810628.601733zm1.6146502-1.223358-.619397-.785078c.2592984-.204577.5165982-.411685.7718608-.621292l.6346074.772835c-.2602922.213737-.5226623.424926-.7870712.633535zm1.567832-1.287616-.6496887-.760201c.2510164-.214526.4999388-.431498.7467293-.650884l.6643912.747385c-.2516493.223705-.5054727.44495-.7614318.6637zm1.515321-1.347247-.6789437-.73419c.2426431-.224385.483094-.451134.7213157-.680212l.6931388.720804c-.2429096.233586-.4880924.464798-.7355108.693598zm1.4610302-1.405094-.7071397-.707074c.2334256-.233447.464572-.469165.6934033-.707116l.7207842.69316c-.2333342.242633-.469029.482989-.7070478.72103zm1.4082356-1.464706-.7343168-.678807c.2243085-.242652.4462439-.487485.6657715-.734462l.7474214.66435c-.2238489.251839-.4501527.501491-.6788761.748919zm1.3469666-1.515575-.7603215-.649547c.2141826-.25071.4259164-.503498.635168-.758326l.7728322.634611c-.2133736.259847-.4292778.517614-.6476787.773262zm1.2903206-1.571873-.7852514-.619177c.2042136-.258987.4058945-.519957.6050107-.78287l.7971805.603741c-.2030428.268098-.4087002.534213-.6169398.798306zm1.2257584-1.618919-.8089598-.587864c.1941561-.267178.3856932-.536246.5745807-.807163l.8203041.571928c-.1926176.276267-.3879363.550647-.585925.823099zm1.1652396-1.671884-.8315287-.555482c.1832821-.274364.3638751-.550514.5417499-.82841l.8422417.5391c-.181393.283392-.3655571.565003-.5524629.844792zm1.0973963-1.715124-.8528175-.522209c.1724513-.281629.3421377-.564946.5090319-.84991l.862901.505373c-.170201.29061-.3432488.579539-.5191154.866746zm1.0282367-1.756249-.8727991-.48808c.161017-.287935.3192086-.577453.474549-.868513l.8822165.470844c-.1584238.296837-.3197547.592101-.4839664.885749zm.9423135-1.764876-.8911431-.453723c.1498305-.294278.2967695-.59004.440793-.887247l.8999057.436084c-.1468871.303117-.2967472.604759-.4495556.904886zm.8421918-1.733951-.9075649-.419912c.1386093-.299579.274276-.600545.4069776-.902858l.9156677.401936c-.1353442.308333-.273712.615291-.4150804.920834zm.8143201-1.855456-.9234667-.383679c.1265694-.304637.2501492-.610557.3707185-.917722l.9308574.365382c-.1229734.31329-.2490169.625309-.3781092.936019zm.7392303-1.883533-.9379196-.346852c.1144397-.309455.2258436-.620093.3341928-.931877l.9445882.328258c-.1105114.318005-.2241384.634842-.3408614.950471zm.6650248-1.914087-.9509318-.3094c.1021154-.313849.201154-.628781.297098-.944761l.9568629.290541c-.09786.322288-.198875.643507-.3030291.96362zm.5883281-1.93793-.9624462-.271474c.0895979-.317648.1760856-.636282.2594472-.955865l.967623.252399c-.085025.325961-.173238.650953-.264624.97494zm.511064-1.959637-.972443-.233142c.07692-.320835.150705-.64256.22134-.965137l.976855.213903c-.072043.329007-.147299.657144-.225752.984376zm.433278-1.979256-.980907-.194477c.064162-.323617.125167-.648028.183005-.9732l.984547.175119c-.058987.331638-.121207.662502-.186645.992558zm.355014-1.996832-.987827-.155559c.051316-.325864.099463-.652431.14443-.979666l.99069.136134c-.045857.333721-.094959.666763-.147293.999091zm.276314-2.012412-.993194-.116471c.038413-.327568.073651-.655749.105703-.98451l.995281.097033c-.032684.335248-.068618.669908-.10779 1.003948zm.196429-2.015833-.996993-.077494c.025557-.328796.047937-.658117.067132-.987934l.99831.0581c-.019571.336286-.04239.672073-.068449 1.007328zm.117783-2.02735-.999258-.038525c.012705-.329538.022238-.659518.028592-.989912l.999816.019227c-.006478.336829-.016197.673242-.02915 1.00921zm.038849-2.02662-1 .000148c-.000049-.330748-.003277-.661121-.009676-.991091l.999812-.019391c.006524.336383.009814.673171.009864 1.010334zm-.039048-2.016158-.999254.038623c-.012745-.329729-.028665-.659005-.04775-.987799l.998319-.057951c.01946.335233.035691.670952.048685 1.007127zm-.117187-2.017086-.997001.077396c-.025573-.329434-.054335-.65833-.086274-.986657l.995302-.096822c.032568.334796.061896.670168.087973 1.006083zm-.196234-2.01589-.993206.116373c-.03845-.328158-.080085-.655692-.124896-.982569l.990734-.135816c.045698.333348.088157.667364.127368 1.002012zm-.274552-2.002498-.987872.155268c-.051234-.325968-.105637-.651224-.163197-.975734l.984631-.174649c.058703.330958.114187.662675.166438.995115zm-.354442-1.997029-.980965.194189c-.064181-.324216-.131526-.647625-.202023-.970192l.97694-.21351c.071902.328992.140589.658842.206048.989513zm-.433879-1.984318-.972488.232952c-.076992-.321413-.1571277-.641924-.2403919-.961497l.9676929-.252131c.084926.325948.16666.652853.245187.980676zm-.505312-1.940674-.9626042.270913c-.0894371-.317786-.1819835-.634576-.2776226-.950334l.9570628-.289882c.097548.32206.191941.645174.283164.969303zm-.5872407-1.938403-.9511112.308849c-.1020516-.314272-.2071844-.627447-.31538-.939489l.9448162-.3276c.1103551.318269.2175863.637695.321675.95824zm-.6639566-1.914587-.9381197.346311c-.114319-.309678-.2316735-.618162-.3520434-.925413l.9310976-.36477c.1227707.313379.242466.628017.3590655.943872zm-.7400627-1.888586-.9236504.383236c-.12661-.305147-.2562145-.608997-.388792-.91151l.915904-.401398c.1352186.30854.2674054.618444.3965384.929672zm-.8134647-1.855917-.907765.419479c-.1384068-.299517-.2797494-.597638-.4240043-.894325l.8993296-.437272c.1471243.302588.2912788.606641.4324397.912118zm-.8901004-1.829936-.8904095.45516c-.1501547-.293741-.3031873-.585985-.4590728-.876693l.8812919-.472573c.1589808.296481.3150528.594529.4681904.894106zm-.9617315-1.792856-.8716891.490059c-.1617821-.287768-.326384-.573936-.4937789-.858464l.8618999-.507078c.1707128.290167.3385779.582008.5035681.875483zm-1.0142993-1.724779-.85198.523574c-.1726259-.280903-.3479986-.56011-.52609-.837581l.8415685-.540151c.1816151.282961.3604585.567694.5365015.854158zm-1.075802-1.677026-.8311112.556107c-.1837733-.274653-.3702358-.547502-.5593576-.818509l.8200593-.572278c.1928578.27636.3830045.5546.5704095.83468zm-1.1607703-1.663143-.8086295.588318c-.1941103-.2668-.3908258-.531703-.5901153-.79467l.7969869-.603997c.2032207.268155.4038172.538284.6017579.810349zm-1.2236542-1.614414-.7849622.619544c-.2045812-.259205-.4116923-.516411-.6213007-.77158l.7727188-.634749c.2137384.260198.4249309.522472.6335441.786785zm-1.2847666-1.563915-.7601398.649759c-.2145251-.250968-.4314965-.499843-.6508799-.746586l.7473246-.664459c.2237025.251601.4449458.505376.6636951.761286zm-1.3473862-1.515194-.7341271.679012c-.224381-.242594-.451126-.482996-.6801993-.721169l.7207411-.693204c.2335812.24286.4647883.487993.6935853.735361zm-1.4086435-1.464311-.7069421.707271c-.2334339-.233325-.4691363-.464372-.7070707-.693104l.6930287-.72091c.2426165.233233.4829569.468826.7209841.706743zm-1.4614242-1.404688-.6787385.73438c-.2426414-.224257-.4874637-.446141-.7344296-.665619l.6642825-.747481c.2518273.223797.5014685.450049.7488856.67872zm-1.5193746-1.349963-.6494051.760443c-.2512207-.214538-.5045269-.426618-.7598803-.636206l.6344378-.772974c.2603837.213717.5186792.429974.7748476.648737zm-1.5683235-1.28704-.6191037.78531c-.2589696-.204161-.5199208-.405789-.7828148-.604853l.6036687-.797235c.2680783.202989.5341747.408593.7982498.616778zm-1.6229514-1.228453-.5877124.80907c-.2671341-.194048-.5361559-.385477-.807026-.574259l.5717788-.820408c.276219.19251.5505523.387719.8229596.585597zm-1.6680853-1.162243-.5554037.831581c-.2743374-.183227-.5504595-.363766-.8283267-.541587l.5390237-.84229c.2833631.181338.5649454.365446.8447067.552296zm-1.7152335-1.09724-.5221287.852867c-.2815973-.172395-.564881-.342026-.8498114-.508866l.5052946-.862947c.2905758.170146.5794712.343137.8666455.518946zm-1.7563548-1.028076-.4879971.872846c-.2878975-.16096-.5773764-.319096-.8683968-.474381l.4707636-.882259c.2967971.158367.5920207.319641.8856303.483794zm-1.764976-.942151-.4536378.891186c-.294233-.149773-.5899498-.296655-.8871109-.440622l.4360024-.899946c.3030697.146831.6046653.296633.9047463.449382zm-1.7340424-.842033-.4198253.907605c-.2995272-.13855-.6004402-.274159-.9026997-.406804l.4018527-.915705c.3082785.135287.6151827.273596.9206723.414904zm-1.8555487-.814149-.3835902.923504c-.3049401-.126661-.611166-.250327-.9186389-.370977l.365276-.930899c.3136036.123055.6259345.249186.9369531.378372zm-1.8836198-.739056-.3467625.937953c-.309383-.114379-.6199487-.225724-.9316587-.334016l.3281717-.944618c.3179306.110453.6346935.22402.9502495.340681zm-1.9141704-.664846-.3093086.950961c-.3137636-.102054-.6286108-.201033-.9445042-.29692l.2904545-.956888c.3221993.0978.6433315.198755.9633583.302847zm-1.9380091-.588147-.2713806.962472c-.3175464-.089536-.6360783-.175964-.9555588-.259268l.2523118-.967646c.3258554.084966.6507438.173119.9746276.264442zm-1.9645636-.512042-.2329522.972488c-.3208217-.076851-.6425319-.150566-.965095-.221133l.2137149-.976896c.3289915.071973.6571144.147158.9843323.225541zm-1.9793955-.432904-.1942855.980945c-.3235078-.064074-.6478091-.124994-.9728695-.182749l.1749337-.98458c.3315241.058903.6622764.121035.9922213.186384zm-1.9969632-.354633-.1553654.987857c-.3257879-.051238-.6522773-.099309-.9794349-.144201l.1359446-.990717c.3336415.045782.6666049.094806.9988557.147061zm-2.0074866-.275336-.1163726.993206c-.3275389-.038377-.65569-.07358-.9844211-.105597l.0969377-.99529c.335217.032649.6698467.068546 1.003856.107681zm-2.0158898-.196234-.0773956.997001c-.3287847-.025523-.6580954-.04787-.9879012-.067032l.0580019-.998316c.3362751.019537.6720507.042323 1.0072949.068347zm-2.0274029-.117585-.038426.999262c-.3295407-.012672-.6595242-.022173-.989921-.028495l.0191293-.999817c.336831.006445.673247.016131 1.0092177.02905zm-2.0266679-.038649.0002474 1c-.3307204.000081-.6610656.003342-.9910068.009773l-.0194887-.99981c.336354-.006556.6731133-.00988 1.0102481-.009963zm-2.021268.039447.0388212.999246c-.3296714.012808-.6588898.02879-.9876251.047937l-.0581456-.998308c.3351731-.019522.6708332-.035817 1.0069495-.048875zm-2.0169806.117581.0775925.996985c-.3293732.025634-.6582087.054455-.9864751.086454l-.0970166-.995283c.3347346-.032629.6700452-.062017 1.0058992-.088156zm-2.0107271.196032.1164704.993194c-.328127.038479-.6556296.080144-.9824753.124982l-.1359122-.990721c.3333169-.045726.6673005-.088215 1.0019171-.127455zm-2.0074254.275529.1554624.987842c-.3259031.051289-.6510941.105746-.9755392.16336l-.1748393-.984597c.3308919-.058758.6625422-.114298.9949161-.166605zm-1.9919755.353848.1942855.980945c-.3241825.064208-.6475579.131579-.9700912.202101l-.2136045-.97692c.3289581-.071927.6587735-.14064.9894102-.206126zm-1.9890993.435229.2331419.972443c-.3213438.077042-.6417855.157226-.9612886.240537l-.2523164-.967645c.325877-.084973.6527105-.166757.9804631-.245335zm-1.9357484.504332.2710066.962578c-.3177505.08946-.634505.182029-.9502267.27769l-.2899737-.957034c.3220239-.097571.6451011-.191988.9691938-.283234zm-1.9383243.587422.3089407.951081c-.3142347.102074-.6273731.207227-.9393773.315443l-.3276906-.944785c.3182315-.110376.6376201-.217628.9581272-.321739zm-1.9145035.664135.3464013.938086c-.3096399.114339-.6180858.231712-.9252992.352101l-.3648581-.931063c.3133406-.12279.6279391-.242505.943756-.359124zm-1.8884987.740237.3833247.923614c-.3051076.126628-.6089182.25625-.9113927.388844l-.4014834-.915866c.3085-.135236.6183638-.26744.9295514-.396592zm-1.8602613.815687.4196522.907685c-.2994358.138439-.5974766.279812-.894083.424096l-.4374396-.899248c.3025061-.147154.6064763-.29134.9118704-.432533zm-1.8254027.888218.4552449.890366c-.2936995.150169-.5859025.303214-.8765692.459113l-.4726542-.881248c.2964383-.158994.5944446-.31508.8939785-.468231zm-1.7969918.964279.4902241.871596c-.2876835.161806-.5737663.32643-.8582086.493846l-.5072381-.861806c.2900801-.170734.5818345-.338622.8752226-.503636zm-1.724571 1.014615.5237348.851881c-.2808161.172645-.559936.348036-.83732.526143l-.5403056-.841468c.2828723-.181632.567516-.360494.8538908-.536556zm-1.6768098 1.076108.5562624.831007c-.274563.183788-.5473228.370264-.81824.559397l-.5724291-.819954c.2762689-.19287.5544179-.38303.8344067-.57045zm-1.6590039 1.158228.588394.808575c-.2667541.194115-.5316113.390835-.7945326.590127l-.6040695-.796931c.2681076-.203224.5381903-.403825.8102081-.601771zm-1.614295 1.223803.619617.784904c-.2591574.204583-.5163167.411696-.7714395.621305l-.634819-.772661c.2601496-.213739.5223765-.424933.7866415-.633548zm-1.5674632 1.288048.6499014.760019c-.2508722.214524-.4996511.431492-.7462989.650872l-.6645952-.747204c.2515036-.223698.5051807-.444939.7609927-.663687zm-1.5149396 1.347666.6791489.734001c-.2424955.224374-.4827997.45111-.7208756.680173l-.6933353-.720615c.2427609-.233571.4877941-.464769.735062-.693559zm-1.4606359 1.405501.7073372.706877c-.2332751.233427-.4642719.469122-.6929548.707048l-.7209728-.692963c.2331828-.242608.4687251-.482941.7065904-.720962zm-1.4078278 1.465101.7345066.678602c-.2241547.242621-.4459375.487422-.6653137.734364l-.7476021-.664147c.2236945-.251803.4498427-.501422.6784092-.748819zm-1.3465469 1.515957.7605032.649334c-.2144859.251207-.4265138.504499-.6360502.759837l-.7730314-.634368c.2136641-.260368.4298682-.518649.6485784-.774803zm-1.2898872 1.572242.785425.618957c-.2044676.259459-.4063938.520906-.6057465.784302l-.79736857-.603493c.20328397-.26859.40919157-.535192.61769007-.799766zm-1.22531317 1.619275.80912497.587636c-.19399334.267112-.38536946.536111-.57409787.806958l-.82045973-.571705c.1924553-.276195.38760989-.550505.58543263-.822889zm-1.16478059 1.672228.83168515.555248c-.18311658.274283-.36354605.55035-.5412595.82816l-.84238854-.53887c.18122847-.283305.36522592-.564831.55196289-.844538zm-1.09439245 1.711315.85291588.522048c-.17233893.281565-.3419146.564816-.50869964.849713l-.86299289-.505216c.17008968-.290542.34302455-.579404.51877665-.866545zm-1.03028753 1.760705.87293757.487832c-.16109446.288266-.31935742.578117-.47476313.869512l-.88235935-.470576c.15849047-.29718.3198942-.592782.48418491-.886768zm-.94182802 1.765175.89127232.453468c-.14965659.294144-.29642477.58977-.44028049.886838l-.90002492-.435839c.14671612-.302975.29640201-.604477.44903309-.904467zm-.84171375 1.734226.907685.419652c-.13843296.299423-.27392684.60023-.40645922.902382l-.91577756-.401685c.13517157-.308169.27336314-.614966.41455178-.920349zm-.81192679 1.851205.92354016.383502c-.12660158.304879-.25020901.611043-.37080146.918453l-.93093256-.365191c.12299697-.31354.24906868-.625808.37819386-.936764zm-.74058723 1.888323.93801969.346582c-.11438183.309573-.22572598.620329-.33401329.932231l-.94468478-.32798c.11044832-.318126.2240143-.635083.34067838-.950833zm-.66449072 1.914337.95102151.309125c-.10202994.313895-.20098233.628873-.29683963.944899l-.95694699-.290263c.09777079-.322334.19869848-.6436.30276511-.963761zm-.58778405 1.938167.96252481.271193c-.08948765.317611-.17586615.636208-.25911953.955752l-.96769571-.252121c.08491461-.325921.17301685-.650875.26429043-.974824zm-.51051126 1.95986.97251091.232857c-.07684341.320931-.15055024.642751-.22110606.965423l-.97691822-.213614c.07196191-.329103.14713796-.657337.22551337-.984666zm-.43271617 1.979466.98096405.194189c-.06404936.323551-.12494484.647895-.18267346.972998l-.98459771-.174835c.05887654-.331568.12098333-.662364.18630712-.992352zm-.3544425 1.997029.98787234.155268c-.05122424.325907-.09927891.652516-.14415237.979793l-.99073071-.135841c.0457628-.333763.09477033-.666848.14701074-.99922zm-.27514291 2.007547.99321709.116275c-.03835501.327628-.0735335.655869-.10552512.984689l-.99530047-.096835c.03262281-.335308.06849581-.670028.1076085-1.004129zm-.1964345 2.021053.99701573.077199c-.02546202.32884-.04774694.658206-.06684561.988067l-.99832805-.057802c.0194733-.336331.04219569-.672163.06815793-1.007464zm-.11699124 2.02235.99926525.038327c-.01263961.329539-.02210785.659522-.02839672.989917l-.99981889-.019031c.00641133-.336829.01606414-.673244.02895036-1.009213zm-.0384481 2.031922.9999999-.000445c.00014725.330664.00347202.660953.00996679.990838l-.99980625.019685c-.00662101-.336297-.01001034-.673-.01016044-1.010078zm.03964443 2.016013.99924233-.03892c.01283944.329643.02885214.658832.04802955.987538l-.99830243.058243c-.01955298-.335143-.035879-.670774-.04896945-1.006861zm.11777799 2.016928.99697749-.077691c.02566454.329343.05451545.658149.08654299.986385l-.99527331.097113c-.03265862-.334704-.06207764-.669983-.08824717-1.005807zm.19622691 2.01067.99318268-.116568c.03850807.328096.0802008.655567.12506719.982381l-.99070768.136009c-.04575472-.333285-.08827251-.667237-.12754219-1.001822zm.27572149 2.007364.98782653-.155559c.05131699.325871.10580151.651029.16344131.975442l-.98458005.174935c-.05878513-.330859-.1143519-.662477-.16668779-.994818zm.35501372 1.996832.98090696-.194477c.06426008.324115.13168328.647423.20225585.969889l-.97687903.213793c-.07197837-.32889-.14074431-.658636-.20628378-.989205zm.4344418 1.984107.97241998-.233236c.07706661.321309.15727507.641716.24061013.961184l-.96762059.252409c-.08499755-.325841-.16680591-.652639-.24540952-.980357zm.50451439 1.935675.96255115-.2711c.08948355.317715.18207524.634434.27775835.950119l-.95700693.290065c-.09759307-.321987-.19203295-.645027-.28330257-.969084zm.58760282 1.938246.9510514-.309033c.10209478.314198.20726951.627299.31550581.939266l-.94475397.327781c-.11039657-.318194-.21767058-.637545-.32180324-.958014zm.66431266 1.91442.93805306-.346492c.1143586.309602.2317514.61801.35215844.925185l-.93102866.364946c-.12280848-.313301-.24254289-.627861-.35918284-.943639zm.74229247 1.892939.92354016-.383502c.12666387.305029.25632037.608761.38894783.911157l-.91579079.401656c-.13526949-.30842-.26750927-.618203-.3966972-.929311zm.81397791 1.855641.90764498-.419739c.13845486.299396.27984343.597396.42414245.893962l-.8992069.437524c-.14716919-.302465-.29137062-.606394-.43258053-.911747zm.89060485 1.829645.89027981-.455414c.15019668.293616.30326914.585736.45919245.87632l-.88115999.472819c-.15901936-.296354-.31513194-.594276-.46831227-.893725zm.96222451 1.792551.87155008-.490307c.16181765.287641.32645293.573682.4938792.858081l-.861759.507318c-.17074474-.290037-.3386439-.581747-.50367028-.875092zm1.01477285 1.724467.85183204-.523815c.17265475.280772.34805416.559849.5261701.837189l-.84141904.540383c-.18164014-.282828-.36051074-.567427-.5365831-.853757zm1.07626217 1.676702.83095453-.556341c.18379524.274518.37027751.547233.55941693.818106l-.81990162.572504c-.1928757-.276223-.38304247-.554326-.57046984-.834269zm1.1612269 1.662801.80846421-.588546c.1941247.266663.3908524.531428.590152.794259l-.79682104.604215c-.20323088-.268015-.40383989-.538004-.60179517-.809928zm1.22409811 1.614058.7847884-.619764c.2045877.259064.4117032.516129.6213138.771159l-.7725451.63496c-.2137405-.260055-.4249374-.522186-.6335571-.786355zm1.2851977 1.563548.759958-.649973c.2145233.250824.4314905.499555.6508677.746156l-.7471431.664663c-.2236961-.251455-.4449352-.505084-.6636826-.760846zm1.3478057 1.514812.7339372-.679217c.2243704.242446.4511023.482701.6801604.720729l-.7205521.6934c-.2335657-.242711-.4647595-.487694-.6935455-.734912zm1.4090511 1.463916.7067445-.707469c.2334137.233174.4690936.464072.7070032.692655l-.6928324.721099c-.2425912-.233082-.4829086-.468522-.7209153-.706285zm1.4618183 1.40428.6785332-.73457c.2426109.224104.4874005.445836.7343313.665161l-.664079.747663c-.2517916-.223643-.5013994-.44974-.7487855-.678254zm1.5197568 1.349542.6491923-.760624c.2511793.214381.5044417.426306.759749.635739l-.6342276.773147c-.2603366-.21356-.5185875-.429658-.7747137-.648262zm1.5686921 1.286608.6188835-.785483c.2594412.204414.5208696.406288.7842463.605588l-.6034203.797424c-.2685706-.203231-.5351536-.409085-.7997095-.617529zm1.623308 1.228007.5874851-.809235c.2670678.193885.5360208.385154.8068198.573776l-.5715554.820563c-.2761466-.192347-.5504098-.387392-.8227495-.585104zm1.6684284 1.161785.5551694-.831737c.2747464.183388.5512813.36408.8295651.542047l-.5387647.842457c-.283788-.181488-.5657914-.365753-.8459698-.552767zm1.7155638 1.096769.5218877-.853014c.2815007.172226.5646854.341691.8495142.508367l-.5050591.863085c-.2904724-.169979-.5792669-.342801-.8663428-.518438zm1.7566718 1.027593.4877494-.872983c.2882279.161037.5780395.319244.8693949.474594l-.4704959.882402c-.2971388-.158434-.5927018-.31978-.8866484-.484013zm1.7652745.941667.4533838-.891316c.2940986.149599.5896786.29631.8867004.44011l-.4357565.900065c-.3029277-.14666-.6043837-.296287-.9043277-.448859zm1.7343177.841554.4195656-.907725c.2997644.138556.6009156.274166.9034144.406809l-.4015786.915824c-.3085226-.135283-.6156698-.273594-.9214014-.414908zm1.8558252.813636.3833247-.923614c.3047569.126483.610797.249973.9180816.370452l-.3650215.930999c-.3134116-.122881-.6255531-.248834-.9363848-.377837zm1.8838826.738533.3464917-.938053c.3095012.114321.6201849.225606.932013.333836l-.3278937.944715c-.318051-.11039-.6349343-.223896-.950611-.340498zm1.9144202.664312.3090328-.951051c.31381.101969.6287031.200862.9446418.296661l-.2901759.956974c-.3222454-.097712-.6434244-.198579-.9634987-.302584zm1.9382455.587603.2711002-.962551c.3175098.089426.6360038.175745.9554454.25894l-.2520337.967719c-.3258157-.084856-.6506655-.172897-.9745119-.264108zm1.9647874.511488.2326675-.972556c.3209165.076774.6427212.150411.9653784.220898l-.2134249.97696c-.3290874-.071892-.6573065-.146997-.984621-.225302zm1.9796055.432341.1939972-.981002c.3236359.064001.6480652.124846.9732533.182522l-.1746382.984633c-.3316543-.058824-.6625369-.120879-.9926123-.186153zm1.992172.353279.1551712-.987888c.3258683.051186.6524379.099202.9796754.144038l-.135746.990744c-.333723-.045725-.666768-.094694-.9991006-.146894zm2.0126585.27554.116079-.99324c.3275669.038283.6557453.07339.9845033.105311l-.0966433.99532c-.335244-.032552-.6699014-.068352-1.003939-.107391zm2.0160606.195649.0771002-.997024c.3288266.025429.6581787.04768.9880253.066746l-.0577051.998333c-.3363164-.019439-.6721338-.042128-1.0074204-.068055zm2.0275612.11699.0381295-.999272c.3295639.012575.6595699.021978.9899887.028202l-.0188326.999823c-.3368531-.006345-.6732917-.015932-1.0092856-.028753z" fill="#706dda" opacity=".2" transform="translate(5 -119)"/></svg>